<svg id="visual" viewBox="0 0 1920 1080" width="1920" height="1080" xmlns="http://www.w3.org/2000/svg" xmlns:xlink="http://www.w3.org/1999/xlink" version="1.1"><rect x="0" y="0" width="1920" height="1080" fill="#222222"></rect><path d="M0 695L45.7 719.5C91.3 744 182.7 793 274.2 826.3C365.7 859.7 457.3 877.3 548.8 882.3C640.3 887.3 731.7 879.7 823 850C914.3 820.3 1005.7 768.7 1097 778.2C1188.3 787.7 1279.7 858.3 1371.2 852.5C1462.7 846.7 1554.3 764.3 1645.8 735.3C1737.3 706.3 1828.7 730.7 1874.3 742.8L1920 755L1920 1081L1874.3 1081C1828.7 1081 1737.3 1081 1645.8 1081C1554.3 1081 1462.7 1081 1371.2 1081C1279.7 1081 1188.3 1081 1097 1081C1005.7 1081 914.3 1081 823 1081C731.7 1081 640.3 1081 548.8 1081C457.3 1081 365.7 1081 274.2 1081C182.7 1081 91.3 1081 45.7 1081L0 1081Z" fill="#00FF00" stroke-linecap="round" stroke-linejoin="miter"></path></svg>